HIERARCHY
ROOT Hips
{
	OFFSET 0.000000 121.760803 0.000000
	CHANNELS 6 Xposition Yposition Zposition Xrotation Yrotation Zrotation 
	JOINT Spine
	{
		OFFSET 0.072000 7.257294 -0.789700
		CHANNELS 3 Xrotation Yrotation Zrotation
		JOINT Spine1
		{
			OFFSET 0.000000 12.508769 -0.658067
			CHANNELS 3 Xrotation Yrotation Zrotation
			JOINT Spine1_split
			{
				OFFSET 0.000000 12.508769 -0.658067
				CHANNELS 3 Xrotation Yrotation Zrotation
				JOINT Spine2
				{
					OFFSET 0.000000 12.508769 -0.658067
					CHANNELS 3 Xrotation Yrotation Zrotation
					JOINT Neck
					{
						OFFSET 0.000000 14.033295 7.520400
						CHANNELS 3 Xrotation Yrotation Zrotation
						JOINT Head
						{
							OFFSET 0.000000 8.198502 5.703100
							CHANNELS 3 Xrotation Yrotation Zrotation
							JOINT HeadTop_End
							{
								OFFSET 0.000000 17.760803 13.332701
								CHANNELS 3 Xrotation Yrotation Zrotation
								End Site
								{
									OFFSET 0.000000 0.000000 0.000000
								}
							}
						}
					}
					JOINT LeftShoulder
					{
						OFFSET 6.292450 5.785301 -0.669000
						CHANNELS 3 Xrotation Yrotation Zrotation
						JOINT LeftShoulder_split
						{
							OFFSET 6.292450 5.785301 -0.669000
							CHANNELS 3 Xrotation Yrotation Zrotation
							JOINT LeftArm
							{
								OFFSET 13.907140 -6.093903 1.965100
								CHANNELS 3 Xrotation Yrotation Zrotation
								JOINT LeftForeArm
								{
									OFFSET 34.140198 0.000000 0.000000
									CHANNELS 3 Xrotation Yrotation Zrotation
									JOINT LeftHand
									{
										OFFSET 40.960209 0.000000 0.000000
										CHANNELS 3 Xrotation Yrotation Zrotation
										JOINT LeftHandThumb1
										{
											OFFSET 10.006996 -7.170425 9.573125
											CHANNELS 3 Xrotation Yrotation Zrotation
											JOINT LeftHandThumb2
											{
												OFFSET 1.835007 -1.059448 1.059443
												CHANNELS 3 Xrotation Yrotation Zrotation
												JOINT LeftHandThumb3
												{
													OFFSET 2.112267 -1.219513 1.219518
													CHANNELS 3 Xrotation Yrotation Zrotation
													JOINT LeftHandThumb4
													{
														OFFSET 4.843811 -2.796570 2.796576
														CHANNELS 3 Xrotation Yrotation Zrotation
														End Site
														{
															OFFSET 0.000000 0.000000 0.000000
														}
													}
												}
											}
										}
										JOINT LeftHandIndex1
										{
											OFFSET 18.389847 -0.922348 4.596882
											CHANNELS 3 Xrotation Yrotation Zrotation
											JOINT LeftHandIndex2
											{
												OFFSET 4.711273 0.000000 0.000000
												CHANNELS 3 Xrotation Yrotation Zrotation
												JOINT LeftHandIndex3
												{
													OFFSET 2.886131 0.000000 0.000000
													CHANNELS 3 Xrotation Yrotation Zrotation
													JOINT LeftHandIndex4
													{
														OFFSET 6.145912 0.000000 0.000000
														CHANNELS 3 Xrotation Yrotation Zrotation
														End Site
														{
															OFFSET 0.000000 0.000000 0.000000
														}
													}
												}
											}
										}
										JOINT LeftHandMiddle1
										{
											OFFSET 18.013008 0.000000 0.000000
											CHANNELS 3 Xrotation Yrotation Zrotation
											JOINT LeftHandMiddle2
											{
												OFFSET 4.946693 0.000000 0.000000
												CHANNELS 3 Xrotation Yrotation Zrotation
												JOINT LeftHandMiddle3
												{
													OFFSET 3.342232 0.000000 0.000000
													CHANNELS 3 Xrotation Yrotation Zrotation
													JOINT LeftHandMiddle4
													{
														OFFSET 4.461754 0.000000 0.000000
														CHANNELS 3 Xrotation Yrotation Zrotation
														End Site
														{
															OFFSET 0.000000 0.000000 0.000000
														}
													}
												}
											}
										}
										JOINT LeftHandRing1
										{
											OFFSET 15.849892 -0.102921 -4.126150
											CHANNELS 3 Xrotation Yrotation Zrotation
											JOINT LeftHandRing2
											{
												OFFSET 3.527054 0.000000 0.000000
												CHANNELS 3 Xrotation Yrotation Zrotation
												JOINT LeftHandRing3
												{
													OFFSET 2.961098 0.000000 0.000000
													CHANNELS 3 Xrotation Yrotation Zrotation
													JOINT LeftHandRing4
													{
														OFFSET 4.927200 0.000000 0.000000
														CHANNELS 3 Xrotation Yrotation Zrotation
														End Site
														{
															OFFSET 0.000000 0.000000 0.000000
														}
													}
												}
											}
										}
										JOINT LeftHandPinky1
										{
											OFFSET 12.791824 -0.832031 -6.799156
											CHANNELS 3 Xrotation Yrotation Zrotation
											JOINT LeftHandPinky2
											{
												OFFSET 3.327133 0.000000 0.000000
												CHANNELS 3 Xrotation Yrotation Zrotation
												JOINT LeftHandPinky3
												{
													OFFSET 3.014900 0.000000 0.000000
													CHANNELS 3 Xrotation Yrotation Zrotation
													JOINT LeftHandPinky4
													{
														OFFSET 5.847786 0.000000 0.000000
														CHANNELS 3 Xrotation Yrotation Zrotation
														End Site
														{
															OFFSET 0.000000 0.000000 0.000000
														}
													}
												}
											}
										}
									}
								}
							}
						}
					}
					JOINT RightShoulder
					{
						OFFSET -6.292450 5.785301 -0.669000
						CHANNELS 3 Xrotation Yrotation Zrotation
						JOINT RightShoulder_split
						{
							OFFSET -6.292450 5.785301 -0.669000
							CHANNELS 3 Xrotation Yrotation Zrotation
							JOINT RightArm
							{
								OFFSET -13.907140 -6.093903 1.965100
								CHANNELS 3 Xrotation Yrotation Zrotation
								JOINT RightForeArm
								{
									OFFSET -34.140198 0.000000 0.000000
									CHANNELS 3 Xrotation Yrotation Zrotation
									JOINT RightHand
									{
										OFFSET -40.960209 0.000000 0.000000
										CHANNELS 3 Xrotation Yrotation Zrotation
										JOINT RightHandThumb1
										{
											OFFSET -10.007050 -7.170456 9.573117
											CHANNELS 3 Xrotation Yrotation Zrotation
											JOINT RightHandThumb2
											{
												OFFSET -1.835007 -1.059448 1.059443
												CHANNELS 3 Xrotation Yrotation Zrotation
												JOINT RightHandThumb3
												{
													OFFSET -2.112267 -1.219513 1.219518
													CHANNELS 3 Xrotation Yrotation Zrotation
													JOINT RightHandThumb4
													{
														OFFSET -4.843834 -2.796585 2.796590
														CHANNELS 3 Xrotation Yrotation Zrotation
														End Site
														{
															OFFSET 0.000000 0.000000 0.000000
														}
													}
												}
											}
										}
										JOINT RightHandIndex1
										{
											OFFSET -18.389870 -0.922424 4.596786
											CHANNELS 3 Xrotation Yrotation Zrotation
											JOINT RightHandIndex2
											{
												OFFSET -4.711273 0.000000 0.000000
												CHANNELS 3 Xrotation Yrotation Zrotation
												JOINT RightHandIndex3
												{
													OFFSET -2.886131 0.000000 0.000000
													CHANNELS 3 Xrotation Yrotation Zrotation
													JOINT RightHandIndex4
													{
														OFFSET -6.145920 0.000000 0.000000
														CHANNELS 3 Xrotation Yrotation Zrotation
														End Site
														{
															OFFSET 0.000000 0.000000 0.000000
														}
													}
												}
											}
										}
										JOINT RightHandMiddle1
										{
											OFFSET -18.013008 0.000000 0.000000
											CHANNELS 3 Xrotation Yrotation Zrotation
											JOINT RightHandMiddle2
											{
												OFFSET -4.946693 0.000000 0.000000
												CHANNELS 3 Xrotation Yrotation Zrotation
												JOINT RightHandMiddle3
												{
													OFFSET -3.342232 0.000000 0.000000
													CHANNELS 3 Xrotation Yrotation Zrotation
													JOINT RightHandMiddle4
													{
														OFFSET -4.461754 0.000000 0.000000
														CHANNELS 3 Xrotation Yrotation Zrotation
														End Site
														{
															OFFSET 0.000000 0.000000 0.000000
														}
													}
												}
											}
										}
										JOINT RightHandRing1
										{
											OFFSET -15.849876 -0.102936 -4.126237
											CHANNELS 3 Xrotation Yrotation Zrotation
											JOINT RightHandRing2
											{
												OFFSET -3.527054 0.000000 0.000000
												CHANNELS 3 Xrotation Yrotation Zrotation
												JOINT RightHandRing3
												{
													OFFSET -2.961098 0.000000 0.000000
													CHANNELS 3 Xrotation Yrotation Zrotation
													JOINT RightHandRing4
													{
														OFFSET -4.927200 0.000000 0.000000
														CHANNELS 3 Xrotation Yrotation Zrotation
														End Site
														{
															OFFSET 0.000000 0.000000 0.000000
														}
													}
												}
											}
										}
										JOINT RightHandPinky1
										{
											OFFSET -12.791786 -0.832077 -6.799222
											CHANNELS 3 Xrotation Yrotation Zrotation
											JOINT RightHandPinky2
											{
												OFFSET -3.327133 0.000000 0.000000
												CHANNELS 3 Xrotation Yrotation Zrotation
												JOINT RightHandPinky3
												{
													OFFSET -3.014900 0.000000 0.000000
													CHANNELS 3 Xrotation Yrotation Zrotation
													JOINT RightHandPinky4
													{
														OFFSET -5.847786 0.000000 0.000000
														CHANNELS 3 Xrotation Yrotation Zrotation
														End Site
														{
															OFFSET 0.000000 0.000000 0.000000
														}
													}
												}
											}
										}
									}
								}
							}
						}
					}
				}
			}
		}
	}
	JOINT LeftUpLeg
	{
		OFFSET 13.026900 -6.336304 -1.092800
		CHANNELS 3 Xrotation Yrotation Zrotation
		JOINT LeftLeg
		{
			OFFSET 0.524474 -46.096886 9.782700
			CHANNELS 3 Xrotation Yrotation Zrotation
			JOINT LeftFoot
			{
				OFFSET -0.524474 -53.427422 -12.948200
				CHANNELS 3 Xrotation Yrotation Zrotation
				JOINT LeftToeBase
				{
					OFFSET 0.192200 -14.009700 16.364100
					CHANNELS 3 Xrotation Yrotation Zrotation
					JOINT LeftToe_End
					{
						OFFSET -1.784700 -0.561700 9.474800
						CHANNELS 3 Xrotation Yrotation Zrotation
						End Site
						{
							OFFSET 0.000000 0.000000 0.000000
						}
					}
				}
			}
		}
	}
	JOINT RightUpLeg
	{
		OFFSET -12.883000 -6.336304 -1.092800
		CHANNELS 3 Xrotation Yrotation Zrotation
		JOINT RightLeg
		{
			OFFSET -0.524587 -46.096825 9.782800
			CHANNELS 3 Xrotation Yrotation Zrotation
			JOINT RightFoot
			{
				OFFSET 0.524587 -53.427383 -12.948300
				CHANNELS 3 Xrotation Yrotation Zrotation
				JOINT RightToeBase
				{
					OFFSET -0.192200 -14.009700 16.364100
					CHANNELS 3 Xrotation Yrotation Zrotation
					JOINT RightToe_End
					{
						OFFSET 1.784700 -0.561700 9.474800
						CHANNELS 3 Xrotation Yrotation Zrotation
						End Site
						{
							OFFSET 0.000000 0.000000 0.000000
						}
					}
				}
			}
		}
	}
}
MOTION
Frames: 4
Frame Time: 0.016667
0.298941 101.736641 -0.260216 -4.056007 -61.173073 -2.195684 10.531019 0.459052 -1.786595 7.138511 0.481476 -4.840602 0.000000 0.000000 0.000000 7.341881 0.512818 -4.809184 -23.259403 25.805462 11.809878 -6.291532 25.717208 -2.641169 0.000000 0.000000 0.000000 -6.367303 -10.788152 -3.787808 0.000000 0.000000 0.000000 -21.873385 6.546979 -38.737425 3.298309 -47.813605 1.501521 23.526238 -7.456337 15.579781 -1.743989 -11.605046 7.087514 1.175763 16.638474 -3.372744 -0.086285 -2.198426 0.945723 -0.000000 0.000001 -0.000000 13.261897 -0.994753 14.608081 -0.163799 0.326152 -27.178243 -0.141871 0.308267 -28.328918 0.000003 -0.000001 0.000003 8.530534 -0.377319 3.011986 0.228017 0.647986 -25.974477 0.399847 0.174984 -40.429621 -0.000002 0.000001 -0.000000 6.138292 3.128095 -12.283908 0.030974 0.295619 -26.198147 0.394216 0.759307 -38.213057 0.000002 -0.000001 0.000001 -5.593220 7.672140 -9.955791 0.209713 0.277184 -42.660952 0.243080 0.239790 -42.359447 0.000000 -0.000002 0.000000 -5.546724 11.668546 2.442833 0.000000 0.000000 0.000000 -42.804638 -24.538213 26.405981 34.764201 107.847253 -33.401353 -11.227958 18.802005 -0.896785 -0.426185 14.756549 -9.085185 -0.217034 -13.162721 4.783223 2.611182 -8.768505 -6.255824 0.000001 -0.000001 -0.000000 19.387707 11.163764 -18.356922 -0.122753 -0.303402 13.011835 -0.103182 -0.275692 18.232859 -0.000000 -0.000001 -0.000001 4.365707 2.482344 -9.836895 0.357445 -0.462550 21.866688 0.450766 0.187214 34.021183 -0.000000 0.000000 0.000001 -6.967551 -10.645244 0.698127 0.113398 -0.065231 21.132223 0.449831 -0.432024 28.241092 0.000002 -0.000001 -0.000001 -19.392985 -20.192993 0.968385 0.222134 -0.061972 31.820902 0.266693 -0.041627 31.448028 -0.000002 0.000000 0.000000 -34.004527 11.069689 29.958289 41.616387 -8.773132 -9.852725 -6.710683 -2.580403 -8.955747 -0.327605 1.238450 0.837249 -0.000000 -0.000000 -0.000000 -29.944898 -8.623098 -22.648571 44.297513 2.949935 -7.160505 -14.858252 4.808471 20.296257 -0.322816 -0.997457 -0.837141 -0.000000 0.000000 -0.000000 
0.254854 101.808502 -0.275490 -3.892429 -60.954971 -1.798497 10.591538 0.457743 -1.733355 7.257250 0.468899 -4.778352 0.000000 0.000000 0.000000 7.460056 0.466613 -4.741551 -22.867974 25.805319 11.676781 -5.777270 25.649949 -2.782641 -0.000000 0.000000 0.000000 -6.418692 -10.815732 -4.148091 0.000000 0.000000 0.000000 -21.457113 6.690794 -38.715104 4.406715 -47.475631 2.146130 23.256352 -7.467381 15.380473 -1.783027 -11.815750 7.005570 1.104976 16.445767 -3.450755 -0.140454 -2.396513 0.847614 0.000001 -0.000001 -0.000001 13.259813 -0.994091 14.834548 -0.164107 0.325779 -26.951593 -0.142767 0.307253 -28.102250 -0.000003 0.000001 0.000000 8.532562 -0.380243 3.238586 0.227737 0.647177 -25.747839 0.398046 0.174629 -40.202965 0.000000 -0.000001 0.000000 6.140721 3.125705 -12.057597 0.030060 0.294094 -25.971504 0.393277 0.759285 -37.986394 0.000000 -0.000001 0.000000 -5.598543 7.673640 -9.728857 0.208897 0.276904 -42.434261 0.242015 0.239246 -42.132835 0.000000 0.000000 0.000003 -5.573473 11.590775 2.601379 0.000000 0.000000 0.000000 -43.195168 -24.472061 26.216966 33.970161 108.583062 -32.512220 -11.201325 19.600882 -1.776038 -0.422806 14.740491 -9.092043 -0.211411 -13.177352 4.776906 2.614784 -8.783912 -6.262749 -0.000000 0.000003 -0.000003 19.389056 11.163742 -18.339767 -0.122769 -0.303278 13.029349 -0.102342 -0.275586 18.250405 0.000000 -0.000002 0.000002 4.365189 2.482200 -9.819380 0.357985 -0.462936 21.884172 0.451304 0.187025 34.038692 -0.000002 -0.000002 -0.000001 -6.967644 -10.645383 0.715573 0.113403 -0.065597 21.149681 0.450312 -0.431723 28.258600 0.000003 -0.000001 -0.000000 -19.395261 -20.194276 0.984129 0.222189 -0.062346 31.838483 0.267082 -0.041901 31.465524 0.000000 -0.000000 -0.000001 -33.728741 10.761527 29.380168 41.425149 -8.355698 -9.772280 -6.649711 -2.564705 -9.146788 -0.327605 1.238449 0.837249 0.000000 0.000001 -0.000000 -30.021058 -8.746321 -22.989413 44.282852 3.062065 -7.152088 -14.894066 4.736394 20.250362 -0.322816 -0.997456 -0.837141 0.000000 -0.000001 -0.000000 
0.197093 101.879555 -0.283235 -3.688438 -60.700731 -1.397591 10.640567 0.452320 -1.701534 7.369344 0.453071 -4.726280 0.000000 0.000000 0.000000 7.573430 0.423508 -4.679428 -22.543798 25.796383 11.622068 -5.275323 25.598651 -2.912717 -0.000000 0.000000 -0.000000 -6.440484 -10.884635 -4.337063 0.000000 0.000000 0.000000 -21.175195 6.913527 -38.724970 5.577272 -47.056653 2.897948 23.026074 -7.470509 15.124219 -1.779688 -11.806510 7.009868 1.107513 16.455749 -3.449351 -0.136565 -2.387715 0.851935 0.000002 0.000001 0.000000 13.258845 -0.994109 14.824109 -0.164112 0.325378 -26.961996 -0.142724 0.306737 -28.112678 0.000002 0.000001 -0.000001 8.531226 -0.380749 3.228209 0.228466 0.647212 -25.758209 0.397535 0.174833 -40.213415 -0.000002 -0.000000 -0.000000 6.140632 3.125778 -12.067787 0.029524 0.294136 -25.981872 0.394098 0.759312 -37.996803 0.000001 -0.000000 -0.000001 -5.601395 7.673608 -9.738869 0.208912 0.277416 -42.444674 0.242046 0.239245 -42.143210 -0.000000 -0.000001 0.000002 -5.599836 11.504904 2.762666 0.000000 0.000000 0.000000 -43.512734 -24.472604 26.085464 33.347200 109.244518 -31.801053 -11.146611 20.342301 -2.590669 -0.415622 14.692886 -9.110329 -0.194276 -13.219782 4.757876 2.622732 -8.829363 -6.283190 0.000000 0.000001 0.000005 19.390108 11.163732 -18.289155 -0.122714 -0.303293 13.080231 -0.101474 -0.275433 18.301263 -0.000001 -0.000002 0.000001 4.364103 2.481781 -9.768460 0.358292 -0.463188 21.935045 0.451827 0.186748 34.089529 0.000000 0.000001 0.000000 -6.968122 -10.645738 0.766206 0.113359 -0.065985 21.200576 0.450303 -0.431653 28.309519 -0.000000 -0.000001 -0.000001 -19.396680 -20.195425 1.033502 0.222228 -0.062844 31.889296 0.267306 -0.042147 31.516398 0.000003 -0.000000 -0.000000 -33.494643 10.419943 28.829498 41.241304 -7.966575 -9.696608 -6.590470 -2.550077 -9.328064 -0.327605 1.238448 0.837249 0.000000 0.000001 0.000000 -30.103758 -8.968434 -23.202759 44.380496 4.239696 -7.089887 -14.896583 3.623359 19.749985 -0.322816 -0.997454 -0.837141 0.000000 -0.000002 -0.000000 
0.125871 101.944580 -0.281000 -3.397780 -60.451088 -0.957114 10.689170 0.443451 -1.689504 7.474953 0.433639 -4.690576 0.000000 0.000000 0.000000 7.681318 0.379653 -4.629596 -22.293816 25.770350 11.684731 -4.788368 25.569001 -3.031156 -0.000000 0.000000 0.000000 -6.435437 -10.966999 -4.381029 0.000000 0.000000 0.000000 -20.957479 7.136092 -38.771016 6.404510 -46.581320 3.444846 22.835404 -7.451221 14.856011 -1.773510 -11.778458 7.021345 1.117317 16.481825 -3.439125 -0.129126 -2.361197 0.865252 -0.000000 0.000001 -0.000000 13.258213 -0.994218 14.793626 -0.164053 0.325094 -26.992469 -0.142634 0.306707 -28.143132 0.000001 -0.000003 0.000005 8.530103 -0.380808 3.197768 0.228932 0.647364 -25.788699 0.397160 0.175202 -40.243881 -0.000004 0.000001 -0.000001 6.140291 3.126122 -12.098271 0.029290 0.294312 -26.012338 0.394737 0.759302 -38.027242 -0.000002 -0.000001 -0.000001 -5.601561 7.673767 -9.769269 0.209022 0.278139 -42.475140 0.242209 0.239334 -42.173737 0.000000 -0.000001 -0.000003 -5.626221 11.415017 2.928151 0.000000 0.000000 0.000000 -43.757265 -24.499860 25.977048 33.032318 109.869542 -31.394790 -11.032532 21.015228 -3.371329 -0.404251 14.616207 -9.139762 -0.167432 -13.288496 4.728257 2.635438 -8.902213 -6.316156 -0.000001 0.000002 -0.000001 19.390962 11.163741 -18.207652 -0.122631 -0.303391 13.161981 -0.100450 -0.275480 18.383053 0.000001 -0.000000 0.000001 4.362488 2.481085 -9.686601 0.358545 -0.463449 22.016876 0.452442 0.186384 34.171279 0.000001 0.000000 0.000000 -6.968844 -10.646388 0.847661 0.113325 -0.066668 21.282332 0.450189 -0.431834 28.391293 0.000004 -0.000001 -0.000001 -19.397988 -20.196369 1.113750 0.222299 -0.063556 31.971036 0.267491 -0.042489 31.598214 0.000001 -0.000000 0.000001 -33.340032 10.089732 28.342488 41.075617 -7.624545 -9.629809 -6.541181 -2.536855 -9.491444 -0.327605 1.238445 0.837249 0.000000 -0.000001 -0.000000 -30.202413 -9.140265 -23.497295 44.340891 4.259744 -7.085571 -14.952613 3.615690 19.743519 -0.322816 -0.997457 -0.837141 -0.000000 -0.000002 0.000000 
